<svg xmlns="http://www.w3.org/2000/svg" version="1.1" xmlns:xlink="http://www.w3.org/1999/xlink" viewBox="0 0 6.37707473734186 4.692367017278556"><g transform="matrix(0.8357109581557496,0,0,0.8357109581557496,3.187468512548891,4.078158340682502)"><rect width="7.299528216893561" height="7.299528216893561" x="-3.648485130216798" y="-5.722220877310207" fill="#ffffff"></rect><g transform="matrix(1,0,0,1,0,0)"><path d=" M -1.9064584465904444 -1.3203392036135504 L -2.1680097052442333 -1.1832591573025761 L -2.1682448388174467 -1.162260473719962 L -1.9082611373184148 -1.1593492961468421 L -1.9104557173350745 -0.9633615827091103 L -2.6154115233228343 -0.9712553526669933 L -2.6119517007455495 -1.2802359825254581 Q -2.6109999696158757 -1.3652306541693724 -2.580841205496508 -1.4238966489772027 Q -2.5506824413771407 -1.4825626437850328 -2.4988497646294725 -1.511984126092553 Q -2.4470170878818043 -1.5414056084000733 -2.383021099820504 -1.540689010843613 Q -2.3110256132515414 -1.5398828385925953 -2.256971304722468 -1.4997750871043385 Q -2.2029169961933954 -1.4596673356160816 -2.180769397582162 -1.3834145725464346 L -1.9040063393269318 -1.5393254752608119 L -1.9064584465904444 -1.3203392036135504 M -2.302236438820794 -1.1637608498538008 L -2.301150345649284 -1.2607547692592087 Q -2.3007024721764964 -1.3007522617975216 -2.3194773443958008 -1.320963747966252 Q -2.3382522166151056 -1.3411752341349823 -2.3742499598995868 -1.3415783202604912 Q -2.4082478285571525 -1.3419590127123608 -2.4279761413243834 -1.3216786361044597 Q -2.447704454091615 -1.3013982594965583 -2.4481411307275827 -1.2624007042717036 L -2.4492272238990926 -1.1654067848662955 L -2.302236438820794 -1.1637608498538008 M -2.2894660857508073 -1.7797247649136558 Q -2.339088405228857 -1.8322116719440606 -2.3525077047874974 -1.8955770599674562 Q -2.365927004346138 -1.9589424479908517 -2.342187951232143 -2.0215959184234698 Q -2.3216377261483863 -2.075833251036781 -2.2852486209134906 -2.1069593336718264 Q -2.2488595156785953 -2.1380854163068723 -2.204240357939879 -2.1457750692696247 L -2.277180219040539 -2.173411578865022 L -2.2077346308264643 -2.3566963580410385 L -1.683128706756335 -2.1579260774895292 L -1.7525742949704095 -1.9746412983135126 L -1.8255141560710693 -2.0022778079089094 Q -1.7971934527091256 -1.96695164535076 -1.7907438995359102 -1.919059545126758 Q -1.7842943463626948 -1.8711674449027558 -1.8044902572208696 -1.8178652387138121 Q -1.8282293103348646 -1.7552117682811943 -1.8802688604819444 -1.7166483760485396 Q -1.9323084106290243 -1.6780849838158851 -2.0047200895309243 -1.6718360832239327 Q -2.0771317684328245 -1.6655871826319806 -2.158487767352791 -1.6964125202576157 Q -2.2398437662727577 -1.7272378578832508 -2.2894660857508073 -1.7797247649136558 M -2.105282835943559 -2.07673407535769 Q -2.144724024753619 -2.0601315868318935 -2.1599595364536452 -2.0199211505840937 Q -2.175549362379254 -1.9787755879119266 -2.1573031189779255 -1.9408503377250197 Q -2.139056875576597 -1.9029250875381127 -2.0876249222363885 -1.883437805131102 Q -2.037128095320547 -1.8643048369496733 -1.9973965004110947 -1.8802626051504956 Q -1.9576649055016422 -1.8962203733513177 -1.9420750795760338 -1.9373659360234847 Q -1.926839567876007 -1.9775763722712842 -1.9453762173767282 -2.016146342783166 Q -1.963912866877449 -2.0547163132950477 -2.015344820217658 -2.074203595702058 Q -2.065841647133499 -2.093336563883487 -2.105282835943559 -2.07673407535769 M -1.8619411518045614 -2.8128841210740845 Q -1.851625495981071 -2.8596450796285375 -1.8141203513206592 -2.9025678489241176 Q -1.7700353567198244 -2.953020928622431 -1.7078190881349518 -2.971031645525847 Q -1.6456028195500791 -2.9890423624292626 -1.5759292746199796 -2.9699938155851227 Q -1.50625572968988 -2.9509452687409823 -1.4407420291861 -2.8937005742593014 Q -1.37522832868232 -2.8364558797776205 -1.3466313228567492 -2.769637384899239 Q -1.3180343170311786 -2.7028188900208576 -1.3275384127969179 -2.63874922353448 Q -1.3370425085626572 -2.5746795570481025 -1.381127503163492 -2.5242264773497887 Q -1.4186326478239035 -2.4813037080542086 -1.4632587390029461 -2.4651865747458386 Q -1.5078848301819887 -2.4490694414374685 -1.5530446806096643 -2.4566581112385584 L -1.2924959406750904 -2.228995303299919 L -1.4214609995073835 -2.081401219406345 L -2.0457237318939776 -2.6268707794674206 L -1.9167586730616848 -2.7744648633609943 L -1.8580222519203649 -2.7231420338256944 Q -1.8722568076280517 -2.766123162519631 -1.8619411518045614 -2.8128841210740845 M -1.655475754268138 -2.777890698547462 Q -1.697853758320723 -2.7757448251776893 -1.7261471130645423 -2.7433644904459356 Q -1.7544404678083616 -2.7109841557141823 -1.7505070628841364 -2.668372205210807 Q -1.7465736579599112 -2.625760254707432 -1.705909981785151 -2.5902290650291473 Q -1.6644932745701178 -2.55403989035682 -1.6217387549973963 -2.555856771229572 Q -1.5789842354246746 -2.557673652102324 -1.5506908806808553 -2.5900539868340773 Q -1.522397525937036 -2.6224343215658306 -1.5267074463813979 -2.6653752645662268 Q -1.5310173668257598 -2.708316207566623 -1.57168104300052 -2.743847397244908 Q -1.6130977502155532 -2.780036571917235 -1.655475754268138 -2.777890698547462 M -1.4954207144809801 -3.282389007612414 Q -1.5374771786413508 -3.2883684576145007 -1.5615509008916735 -3.3239978822101115 Q -1.5861844771478177 -3.360455898075388 -1.576319618322181 -3.402120446079059 Q -1.5664547594965441 -3.4437849940827308 -1.5233680134739451 -3.472897402385447 Q -1.4811098587210114 -3.5014499566823414 -1.43877346755773 -3.4950562110454215 Q -1.3964370763944487 -3.4886624654085017 -1.3718035001383044 -3.452204449543226 Q -1.3477297778879818 -3.416575024947615 -1.357874563716529 -3.375324772578776 Q -1.3680193495450765 -3.334074520209937 -1.4102775042980102 -3.3055219659130426 Q -1.4533642503206095 -3.276409557610327 -1.4954207144809801 -3.282389007612414 M -1.3007917428377538 -3.316741058455125 L -0.9867136455719152 -2.851901356172854 L -1.1491175344263271 -2.742169971031848 L -1.463195631692166 -3.207009673314119 L -1.3007917428377538 -3.316741058455125 M -1.0397801390436499 -3.3325597268612634 Q -1.0314559255184166 -3.4043089949354837 -0.9910592891648046 -3.4554764823793094 Q -0.9506626528111927 -3.506643969823135 -0.887403979159703 -3.5287197531128474 Q -0.836419376515219 -3.5465121754657494 -0.7888790966016841 -3.5392718864008876 Q -0.7413388166881493 -3.532031597336026 -0.7058289104801713 -3.503117127582966 L -0.7901781720050418 -3.74482191049015 L -0.6041787882834979 -3.8097313031479607 L -0.3603567041881688 -3.111053415056882 L -0.5463560879097128 -3.046144022399071 L -0.5720562535305718 -3.1197884484411036 Q -0.5809218348094596 -3.0753879814549623 -0.6129982717900444 -3.039833766646721 Q -0.6450747087706292 -3.0042795518384797 -0.698891789339807 -2.9854986615770827 Q -0.7621504629912965 -2.9634228782873704 -0.8251392708889996 -2.978511287071144 Q -0.8881280787867027 -2.9935996958549174 -0.9394506463314501 -3.045063217504867 Q -0.9907732138761975 -3.096526739154817 -1.0194387832225402 -3.17866859897093 Q -1.048104352568883 -3.2608104587870432 -1.0397801390436499 -3.3325597268612634 M -0.6938577130306401 -3.3823158840809873 Q -0.7319245810112375 -3.401864888202624 -0.7725234312651785 -3.3876968481808687 Q -0.8140664408273508 -3.3731993188562814 -0.8313976370296937 -3.3348472701731158 Q -0.8487288332320366 -3.2964952214899506 -0.8306069215763027 -3.244566459537235 Q -0.8128144992234003 -3.193581856892751 -0.7750549662455029 -3.1733960284655827 Q -0.7372954332676053 -3.153210200038415 -0.695752423705433 -3.167707729363002 Q -0.6551535734514919 -3.1818757693847575 -0.6375150422464493 -3.220864642373454 Q -0.6198765110414064 -3.259853515362151 -0.6379984226971404 -3.311782277314866 Q -0.6557908450500427 -3.3627668799593504 -0.6938577130306401 -3.3823158840809873 M 0.5082443564254554 -3.4355704529644404 Q 0.473244645552401 -3.3865651446927583 0.4106895198476034 -3.3616782757041337 Q 0.34813439414280556 -3.3367914067155096 0.2626378455886669 -3.3460833486723778 L 0.16620569198690585 -3.3565637948330314 L 0.14049078285045638 -3.11995706743902 L -0.05436181617990619 -3.141134051433743 L 0.02181049869907231 -3.8420069203949962 L 0.313095251331196 -3.810349490239619 Q 0.3975976539719144 -3.8011655941194586 0.4535079607191842 -3.7649124894327395 Q 0.509418267466454 -3.7286593847460208 0.5335162155235487 -3.6727282762335163 Q 0.5576141635806434 -3.6167971677210113 0.5501590008478072 -3.5482010996950164 Q 0.5432440672985098 -3.4845757612361226 0.5082443564254554 -3.4355704529644404 M 0.35132981816376363 -3.569810267036571 Q 0.359649347590262 -3.6463595023699273 0.2771352367763841 -3.6553273068166723 L 0.1995918555296071 -3.6637548820798784 L 0.18306084251331814 -3.5116505573265853 L 0.26060422376009507 -3.503222982063379 Q 0.3431183345739731 -3.494255177616634 0.35132981816376363 -3.569810267036571 M 0.7678434235256116 -3.445685079351628 Q 0.8246002569085255 -3.490360708774661 0.8889191270888783 -3.4979983090995606 Q 0.9532379972692313 -3.50563590942446 1.0134895978235363 -3.4763315645137736 Q 1.0656476997959197 -3.450963624143329 1.0933576593531589 -3.411910351023958 Q 1.121067618910398 -3.372857077904587 1.1246932511675958 -3.327725550224532 L 1.1588087571830217 -3.397869204601186 L 1.3350671707448694 -3.3121430612803717 L 1.0896979544031518 -2.807648316340594 L 0.9134395408413043 -2.893374459661408 L 0.9475550468567302 -2.9635181140380618 Q 0.9098139085841066 -2.938505987341463 0.8615349092333043 -2.936411179072137 Q 0.8132559098825021 -2.934316370802811 0.7619970855303322 -2.959246932891007 Q 0.7017454849760272 -2.9885512778016934 0.6680430945531077 -3.0438631108917393 Q 0.6343407041301884 -3.0991749439817853 0.6346617365807756 -3.171855043996615 Q 0.634982769031363 -3.244535144011445 0.6730346795870304 -3.32277229697002 Q 0.7110865901426979 -3.4010094499285954 0.7678434235256116 -3.445685079351628 M 1.0469913023481583 -3.235412727985899 Q 1.0340213393015805 -3.2761929935388645 0.9953524016323996 -3.295000259675574 Q 0.9557841863430053 -3.314244904094532 0.9163650977482176 -3.2995009068632424 Q 0.8769460091534298 -3.284756909631953 0.852890203629732 -3.23529664052021 Q 0.8292717763882832 -3.1867356490286807 0.8415734114836299 -3.1457244338067327 Q 0.8538750465789765 -3.1047132185847848 0.8934432618683708 -3.0854685741658265 Q 0.9321121995375516 -3.066661308029117 0.9721996160835706 -3.081636254929389 Q 1.0122870326295899 -3.0966112018296608 1.0363428381532875 -3.1460714709414037 Q 1.0599612653947363 -3.194632462432933 1.0469913023481583 -3.235412727985899 M 2.005541277935815 -2.6936008749440603 L 1.1628705527919445 -2.373872788931111 L 1.014792751053963 -2.5269804785892305 L 1.3171249722905936 -2.6329626846529144 L 1.5432326480965768 -3.1716131454729313 L 1.6947864545701916 -3.01491137859279 L 1.5482368550105665 -2.709017254966798 L 1.85607307430358 -2.8481461954909886 L 2.005541277935815 -2.6936008749440603 M 2.0316963532969736 -2.05374386937027 Q 2.1045737990854056 -2.014273907432688 2.173905287006377 -1.9947958484260977 Q 2.243236774927348 -1.9753177894195075 2.2930454878986937 -1.9934311025382636 Q 2.32311867308894 -2.0043674425344937 2.3350793106976617 -2.0241460458217033 Q 2.3470399483063837 -2.0439246491089134 2.3374706508096823 -2.070238686150379 Q 2.327559592688099 -2.09749251022904 2.2990666402787014 -2.1041559675145494 Q 2.270573687869304 -2.110819424800059 2.226745457746012 -2.093816888393401 L 2.1618109390183955 -2.272376425460489 Q 2.246477267203415 -2.2999737599634185 2.313758191375093 -2.286134423179999 Q 2.381039115546771 -2.2722950863965803 2.4267053753128063 -2.2271858554235187 Q 2.4723716350788414 -2.1820766244504575 2.496636639445477 -2.115351744809598 Q 2.5386731963059868 -1.9997579392345883 2.5018518245300108 -1.9225233188850628 Q 2.4650304527540348 -1.845288698535537 2.3738711101461005 -1.8121379179219645 Q 2.2761332582777993 -1.7765948129342166 2.166860274463724 -1.8108097951550035 Q 2.057587290649648 -1.8450247773757908 1.954379518983846 -1.918155864252574 L 2.039819675204394 -1.6832091049537736 L 1.8903935362903568 -1.6288691655975054 L 1.7160956176004394 -2.108160554567058 L 1.8542443120681338 -2.15839936642474 Q 1.9588189075085416 -2.093213831307852 2.0316963532969736 -2.05374386937027 M 2.0215233200844738 -1.5495543334291044 L 2.1834939183396274 -1.5526406420442118 L 2.627263170071696 -1.2540408241990566 L 2.6313591969374244 -1.0390798450332666 L 2.2014372386058447 -1.030887791301809 L 2.202904187762408 -0.9539017662052238 L 2.0329350414452714 -0.9506630472881359 L 2.0314680922887085 -1.0276490723847211 L 1.911489871358965 -1.025362917855012 L 1.907717716384945 -1.2233269823890884 L 2.0276959373146886 -1.2256131369187977 L 2.0215233200844738 -1.5495543334291044 M 2.4069129210673412 -1.217836297358911 L 2.195321775238873 -1.3518295322888723 L 2.197950852948038 -1.2138545782196677 L 2.4069129210673412 -1.217836297358911" fill="#262626" fill-rule="nonzero"></path></g><g transform="matrix(1,0,0,1,0,0)"><g transform="matrix(1,0,0,1,0,0)" clip-path="url(#SvgjsClipPath2833)"><g clip-path="url(#SvgjsClipPath28288f2e9509-9746-4e7a-b722-c797f18c3067)"><path d=" M -0.366948586958149 -0.1875 L -0.32193543977985817 -1.1855362223056045 L 1.6061708964879302 -1.1855362223056045 L 1.5611577493096398 -0.1875 Z" fill="#262626" transform="matrix(1,0,0,1,0,0)" fill-rule="evenodd"></path></g><g clip-path="url(#SvgjsClipPath28288f2e9509-9746-4e7a-b722-c797f18c3067)"><path d=" M -0.24649593943850667 -1.1065400209556038 L -0.2843452860022102 -0.26650340114961346 L 1.4856606505713872 -0.26650340114961346 L 1.523596394730443 -1.1065400209556038 Z" fill="#e8a941" transform="matrix(1,0,0,1,0,0)" fill-rule="evenodd"></path></g><g clip-path="url(#SvgjsClipPath28288f2e9509-9746-4e7a-b722-c797f18c3067)"><path d=" M 0.679218295758024 -1.1461389188251814 L 0.3172051714343471 -1.1367143811322218 L 0.2697656917865934 -1.1999718205289687 C 0.1947149806243249 -1.358108219221223 -0.08124613872895359 -1.56088337551191 -0.2990832758093058 -1.6875998486945578 C -0.35149781698940097 -1.8238992551616433 -0.3642630617026301 -1.982791632813226 -0.30997657262324574 -2.1733631287604704 C -0.11623716484643509 -1.7164278463436102 0.34376523220541433 -1.4204872830652264 0.679218295758024 -1.1461389188251814 Z" fill="#262626" transform="matrix(1,0,0,1,0,0)" fill-rule="evenodd"></path></g><g clip-path="url(#SvgjsClipPath28288f2e9509-9746-4e7a-b722-c797f18c3067)"><path d=" M -0.7482859734421795 -1.1691638779864373 L -0.7584160914971787 -1.2431706182048714 L -0.7598560514197088 -1.2451577628979629 C -0.811939401817622 -1.3245499532266591 -0.8438993122981775 -1.4239143876808482 -0.8388594525693222 -1.5532299885236627 L -0.8364331200998589 -1.617718593654173 L -0.885391757465882 -1.6890758076151513 C -0.9496643686080124 -1.7995783320701102 -0.9827546476277539 -1.935172158175156 -0.9591609042970984 -2.106865779538031 L -0.9402326311154403 -2.24548352148039 L -0.8679970416017184 -2.1256860557254993 C -0.5553601430215982 -1.6066669012487542 0.27989580984159246 -1.461504541458496 0.3807938016132757 -1.0613324791877716 C 0.414863253380338 -0.9266962264312086 0.3691589254392327 -0.6970226187876591 0.21960468788525755 -0.6195023763582521 C -0.1900207112768768 -0.40712988718390153 -0.699586528862212 -0.8136305733141458 -0.7482859734421795 -1.1691638779864373 Z" fill="#262626" transform="matrix(1,0,0,1,0,0)" fill-rule="evenodd"></path></g><g clip-path="url(#SvgjsClipPath28288f2e9509-9746-4e7a-b722-c797f18c3067)"><path d=" M 0.19696851790308445 -0.663334756400068 C 0.31781715440142233 -0.7260306114270281 0.3640686671130886 -0.9262930376528999 0.3329655327864385 -1.0492440156381315 C 0.23879215385297092 -1.4226688223478594 -0.5840657440772357 -1.5586226384335378 -0.9102598653279765 -2.100270763092843 C -1.0003293584822337 -1.4437570354133125 -0.2098201602116656 -1.3663303903788697 -0.10715821753488308 -1.1006001862751673 C -0.290328319480323 -1.2785792326998862 -0.6507070892919282 -1.2952539686027846 -0.7895624246215047 -1.5513508408247607 C -0.8084906978031627 -1.061699668968017 -0.2576052302408267 -1.0541470791743464 -0.16173989839838598 -0.8272525941812805 C -0.36067036169591793 -0.9680302760074344 -0.5669806195964162 -0.964048786821639 -0.6993057366773188 -1.1758236926281391 C -0.6543429880963167 -0.8470952419137452 -0.17483633389379682 -0.4706537191663167 0.19696851790308445 -0.663334756400068 Z" fill="#e8a941" transform="matrix(1,0,0,1,0,0)" fill-rule="evenodd"></path></g><g clip-path="url(#SvgjsClipPath28288f2e9509-9746-4e7a-b722-c797f18c3067)"><path d=" M 0.698499359120702 -0.9236003125977688 C 0.842531350371774 -0.9236003125977688 0.9484044036757986 -0.8097642809221526 0.9349119792016918 -0.6695985820630737 C 0.9214195547275854 -0.529432883203995 0.7934575162119488 -0.415611251127604 0.6494543241593269 -0.415611251127604 C 0.5054511321067054 -0.415611251127604 0.399527680205392 -0.5294328832039947 0.4130417040783372 -0.6695985820630737 C 0.42655572795128194 -0.8097642809221524 0.5545033668676931 -0.9236003125977688 0.698499359120702 -0.9236003125977688 Z" fill="#262626" transform="matrix(1,0,0,1,0,0)" fill-rule="evenodd"></path></g><g clip-path="url(#SvgjsClipPath28288f2e9509-9746-4e7a-b722-c797f18c3067)"><path d=" M 1.4828887277205172 -1.1866521912455652 C 1.5459664393882058 -1.1849531770782713 1.5958893785242312 -1.1327364861865157 1.5947550330030054 -1.0696460937435197 C 1.593620687481779 -1.0065557013005235 1.5418529422696827 -0.9561673771041397 1.4787549238366857 -0.9567369630958391 C 1.4156569054036878 -0.9573065490875385 1.364807233245953 -1.0086212010021263 1.3648120140730495 -1.071721790028826 C 1.3657164880605057 -1.1360495910194233 1.418559958711716 -1.1874849765075512 1.4828887277205154 -1.1866521912455652 Z" fill="#262626" transform="matrix(1,0,0,1,0,0)" fill-rule="evenodd"></path></g><g clip-path="url(#SvgjsClipPath28288f2e9509-9746-4e7a-b722-c797f18c3067)"><path d=" M 1.4347796667087862 -0.4421641120990587 C 1.497854572848353 -0.4404651732839573 1.5477764456251695 -0.388252870246818 1.5466461007982315 -0.325165212989754 C 1.545515755971294 -0.26207755573268976 1.4937555441705506 -0.2116870958783803 1.4306602613296322 -0.2122487548827019 C 1.3675649784887138 -0.21281041388702304 1.3167100255113953 -0.2641143292118915 1.3167029530613195 -0.3272121114834823 C 1.3176035167488425 -0.39154499692118416 1.3704457646267771 -0.44298885848332525 1.4347796667087858 -0.44216411209905915 Z" fill="#262626" transform="matrix(1,0,0,1,0,0)" fill-rule="evenodd"></path></g><g clip-path="url(#SvgjsClipPath28288f2e9509-9746-4e7a-b722-c797f18c3067)"><path d=" M -0.22658849350952837 -0.44209931390254487 C -0.16351358736996224 -0.44040037508744323 -0.11359171459314621 -0.38818807205030414 -0.11472205942008395 -0.3251004147932399 C -0.1158524042470217 -0.2620127575361759 -0.16761261604776534 -0.21162229768186647 -0.23070789888868326 -0.2121839566861876 C -0.2938031817296014 -0.21274561569050876 -0.3446581347069204 -0.2640495310153774 -0.3446652071569958 -0.327147313286968 C -0.343740990444406 -0.39147001681111937 -0.29091285155792845 -0.44290014275389455 -0.22658849350952948 -0.44209931390254487 Z" fill="#262626" transform="matrix(1,0,0,1,0,0)" fill-rule="evenodd"></path></g><g clip-path="url(#SvgjsClipPath28288f2e9509-9746-4e7a-b722-c797f18c3067)"><path d=" M -0.09000109505793685 -0.5058391398733393 C -0.038659324020126506 -0.4845565322183447 0.055859645294748406 -0.47137369912758165 0.12894481116276313 -0.4787462939309357 C 0.18222332829637655 -0.48407414564429696 0.2535517430589045 -0.5118653721491278 0.2812277727699326 -0.5299368691768804 C 0.277210284586074 -0.48453493281950655 0.15734802063466913 -0.4320195944448346 0.061633884584094245 -0.41720960664161244 C 0.032186704168353675 -0.4125873352902909 -0.036052996560347106 -0.415510453933027 -0.06825050042811975 -0.42889488141294385 C -0.09763288264734604 -0.44106974255793574 -0.11413482335954095 -0.4720936790888466 -0.10669023056006033 -0.49712738234203213 C -0.10491188005573604 -0.5031320152189827 -0.1000232161187462 -0.5063647252450627 -0.09000109505793685 -0.5058391398733393 Z" fill="#262626" transform="matrix(1,0,0,1,0,0)" fill-rule="evenodd"></path></g><g clip-path="url(#SvgjsClipPath28288f2e9509-9746-4e7a-b722-c797f18c3067)"><path d=" M 0.6008340773750986 -0.47326724642570883 L 0.6693545702886929 -0.47326724642570883 L 0.6808382506708703 -0.5122109625305351 L 0.6874476667152836 -0.5126717497057445 C 0.7026450006215761 -0.5124409912514636 0.7177797363363148 -0.5146680463381623 0.7322664193040329 -0.5192667661509323 C 0.7441442074200566 -0.523094764397712 0.7551925665089554 -0.5291306908422553 0.7648311129520513 -0.5370574709937916 C 0.773544901335784 -0.5443355788610775 0.7808866986852472 -0.5531135497870383 0.7865097095857414 -0.5629767495993334 C 0.7920564095790574 -0.5726545352014556 0.7961787091701238 -0.583081528284741 0.7987493689272473 -0.5939358879337302 L 0.8072163332717235 -0.6284085284791003 C 0.8098405589338022 -0.6382901580434601 0.8115018635737417 -0.648402656824163 0.8121769952048399 -0.6586044880545565 C 0.8127520930569383 -0.6665107160478585 0.8113258296121444 -0.6744344018522681 0.8080299106279529 -0.6816438468150376 C 0.8043439059341138 -0.6886736006083842 0.7984425008368428 -0.6942915763013264 0.791239977931252 -0.6976274019551216 C 0.7808064460641342 -0.702430226543177 0.7696308214564875 -0.705420132211628 0.7581928977091867 -0.7064687558794565 L 0.7175428290961623 -0.7108966326412365 L 0.7267801719991929 -0.7484435876212086 L 0.8155681008223983 -0.7484435876212086 L 0.8328116208946961 -0.8182312452666296 C 0.8326172263051546 -0.8182312452666296 0.8292765192848846 -0.8185408366499736 0.8227679004350485 -0.8190808216209222 C 0.8162592815852125 -0.8196208065918711 0.8075763232523561 -0.8203263869539108 0.7967262252360916 -0.8211759633082034 C 0.7858761272198276 -0.8220255396624963 0.7739172600632149 -0.8227743188222121 0.7607992251689661 -0.823515898182315 L 0.7683086161649606 -0.8659515170992766 L 0.6998457216482672 -0.8659515170992766 L 0.6865548915633144 -0.8257406362626238 L 0.6785847133921101 -0.8257406362626238 C 0.6633207297556001 -0.8259092022653678 0.6481246740258877 -0.8236838486205371 0.6335499668149813 -0.819145619817436 C 0.6216219816540498 -0.8153175615821644 0.6105158681269458 -0.8092907611897076 0.6008052781766478 -0.8013765143734148 C 0.5920483762408204 -0.7941329096333203 0.5846304911476996 -0.7854088529206484 0.5788890881557398 -0.7756012317601264 C 0.5733084357920313 -0.7659989445412354 0.5691058037162939 -0.7556595971161515 0.566404635627404 -0.7448868866125593 L 0.5580024694794412 -0.7126677833459487 C 0.5544359322403145 -0.7011276522467631 0.5532263904496264 -0.6889881619669413 0.5544457684707917 -0.6769711768664277 C 0.5554943127570113 -0.6686161465563396 0.559732961298447 -0.6609901909334046 0.5662750392343767 -0.6556885692114334 C 0.5740956744223249 -0.6500501778585592 0.5830594976395322 -0.6461987078883469 0.5925327084217122 -0.6444064832184098 C 0.6056114973986744 -0.6415750745226407 0.6188607486482569 -0.6395981486691 0.6321964044878041 -0.638488247936811 L 0.6564957281804991 -0.6354355329010475 L 0.6450336471971596 -0.5895296105707881 L 0.5319967932785477 -0.5895296105707881 L 0.5151852611830088 -0.5232554551363409 C 0.5152716587783606 -0.5232554551363409 0.5178923858373654 -0.5229746629514473 0.5230258429611854 -0.5224706769785616 C 0.5281593000850053 -0.5219666910056759 0.5350711077131494 -0.5212755102428617 0.5438476634409706 -0.5204619328866325 C 0.5526242191687913 -0.5196483555304028 0.5625095440369599 -0.518762780178047 0.5735108378450904 -0.5178484056272401 C 0.58451213165322 -0.5169340310764334 0.5960390108330738 -0.516120453720204 0.6079834783904605 -0.515335675562425 Z M 0.7179388180748578 -0.6279333417046655 C 0.7215387178811832 -0.6278901429069899 0.7235906607707889 -0.6268605715623807 0.7240730473448362 -0.6247870292739373 C 0.7244545220701966 -0.6218306957121966 0.7241791884543733 -0.6188266092967034 0.7232666697882193 -0.6159888741472788 L 0.7210347319082975 -0.6071259208241058 C 0.7199508854407672 -0.6014392325391757 0.7165631880381493 -0.5964541055151695 0.7116749924118517 -0.5933527041651052 C 0.7052332773961516 -0.5903446281046623 0.6981331611142783 -0.5890217173947807 0.6910403667219955 -0.58950801117195 L 0.6874836657133461 -0.58950801117195 L 0.6976353831671833 -0.6310292555381052 C 0.6988377497024958 -0.6307916621508876 0.7009976895862913 -0.6304820707675438 0.7039856064255412 -0.6299852845942708 C 0.7069735232647911 -0.6294884984209976 0.7099254411059777 -0.6290421108450135 0.7128053609510383 -0.6286101228682546 C 0.7145031369307007 -0.6282926245710456 0.7162167661414856 -0.6280667043104373 0.7179388180748578 -0.6279333417046655 Z M 0.6556605514254321 -0.7184132234368439 C 0.6521722519867295 -0.7186244539701636 0.6487829690970939 -0.7196555458536189 0.6457680267576502 -0.7214227396749318 C 0.6437855729572357 -0.7230324332475642 0.6431327515995666 -0.7257736921612157 0.6441768710432543 -0.7281041537154711 L 0.6468191975010971 -0.7391486463212769 C 0.6472102577328842 -0.7414256947573383 0.6480976176599382 -0.743588788208329 0.649418325161264 -0.7454844699804093 C 0.6506995550131776 -0.7469195282226593 0.65247758188438 -0.7478149744617018 0.6543933866936049 -0.7479900002456119 C 0.6575942554170666 -0.748372733741204 0.6608183430110177 -0.7485267200143475 0.6640411181745569 -0.748450787420821 L 0.6843445530822305 -0.748450787420821 L 0.6759567865334928 -0.7157708969790011 Z" fill="#e8a941" transform="matrix(1,0,0,1,0,0)" fill-rule="nonzero"></path></g><g clip-path="url(#SvgjsClipPath28288f2e9509-9746-4e7a-b722-c797f18c3067)"><path d=" M -0.42204865339376263 -0.25318377186621 L -1.3994574498091237 -0.25812283440048844 L -0.42006150870067094 -0.31330209863184133 Z" fill="#e8a941" transform="matrix(1,0,0,1,0,0)" fill-rule="evenodd"></path></g><g clip-path="url(#SvgjsClipPath28288f2e9509-9746-4e7a-b722-c797f18c3067)"><path d=" M -0.6288988962652099 -0.41878636275678294 L -1.6061564968887052 -0.4237398248902866 L -0.6248238096844497 -0.47894788832008994 Z" fill="#e8a941" transform="matrix(1,0,0,1,0,0)" fill-rule="evenodd"></path></g><g clip-path="url(#SvgjsClipPath28288f2e9509-9746-4e7a-b722-c797f18c3067)"><path d=" M -0.42145826982552537 -0.5826106031430309 L -1.1165053250319612 -0.5875928644749853 L -0.41800956581106585 -0.6427721287063379 Z" fill="#e8a941" transform="matrix(1,0,0,1,0,0)" fill-rule="evenodd"></path></g></g></g></g><defs><clipPath id="SvgjsClipPath2833"><path d=" M -1.6061564968887052 -2.24548352148039 h 3.2123129937774104 v 2.05798352148039 h -3.2123129937774104 Z"></path></clipPath><clipPath id="SvgjsClipPath28288f2e9509-9746-4e7a-b722-c797f18c3067"><path d=" M -1.6061564968887052 -2.24548352148039 L 1.6061564968887052 -2.24548352148039 L 1.6061564968887052 -0.1875 L -1.6061564968887052 -0.1875 Z"></path></clipPath></defs></svg>