<svg width="407" height="99" viewBox="0 0 407 99" fill="none" xmlns="http://www.w3.org/2000/svg">
<path d="M24.168 70V34.24H39.288C41.752 34.24 43.864 34.656 45.624 35.488C47.384 36.32 48.728 37.52 49.656 39.088C50.584 40.624 51.048 42.496 51.048 44.704C51.048 46.272 50.616 47.776 49.752 49.216C48.888 50.624 47.464 51.808 45.48 52.768V49.12C47.368 49.856 48.824 50.736 49.848 51.76C50.872 52.784 51.576 53.904 51.96 55.12C52.344 56.304 52.536 57.552 52.536 58.864C52.536 62.384 51.368 65.12 49.032 67.072C46.696 69.024 43.448 70 39.288 70H24.168ZM31.608 63.52H40.152C41.656 63.52 42.856 63.088 43.752 62.224C44.648 61.36 45.096 60.24 45.096 58.864C45.096 57.456 44.648 56.32 43.752 55.456C42.856 54.592 41.656 54.16 40.152 54.16H31.608V63.52ZM31.608 47.68H39.816C40.968 47.68 41.88 47.36 42.552 46.72C43.256 46.048 43.608 45.168 43.608 44.08C43.608 42.992 43.256 42.128 42.552 41.488C41.88 40.816 40.968 40.48 39.816 40.48H31.608V47.68ZM69.7886 70.576C67.1966 70.576 64.8286 69.984 62.6846 68.8C60.5726 67.616 58.8766 66 57.5966 63.952C56.3486 61.872 55.7246 59.52 55.7246 56.896C55.7246 54.24 56.3486 51.888 57.5966 49.84C58.8766 47.792 60.5726 46.176 62.6846 44.992C64.8286 43.808 67.1966 43.216 69.7886 43.216C72.3806 43.216 74.7326 43.808 76.8446 44.992C78.9566 46.176 80.6366 47.792 81.8846 49.84C83.1646 51.888 83.8046 54.24 83.8046 56.896C83.8046 59.52 83.1646 61.872 81.8846 63.952C80.6366 66 78.9566 67.616 76.8446 68.8C74.7326 69.984 72.3806 70.576 69.7886 70.576ZM69.7886 64.096C71.1006 64.096 72.2366 63.792 73.1966 63.184C74.1886 62.576 74.9566 61.728 75.5006 60.64C76.0766 59.552 76.3646 58.304 76.3646 56.896C76.3646 55.488 76.0766 54.256 75.5006 53.2C74.9566 52.112 74.1886 51.264 73.1966 50.656C72.2366 50.016 71.1006 49.696 69.7886 49.696C68.4766 49.696 67.3246 50.016 66.3326 50.656C65.3406 51.264 64.5566 52.112 63.9806 53.2C63.4366 54.256 63.1646 55.488 63.1646 56.896C63.1646 58.304 63.4366 59.552 63.9806 60.64C64.5566 61.728 65.3406 62.576 66.3326 63.184C67.3246 63.792 68.4766 64.096 69.7886 64.096ZM88.0463 70V33.664H95.2463V70H88.0463ZM113.139 70.288C109.971 70.288 107.507 69.44 105.747 67.744C104.019 66.016 103.155 63.616 103.155 60.544V50.032H98.739V43.792H98.979C100.323 43.792 101.347 43.456 102.051 42.784C102.787 42.112 103.155 41.104 103.155 39.76V37.84H110.355V43.792H116.499V50.032H110.355V60.064C110.355 60.96 110.515 61.712 110.835 62.32C111.155 62.896 111.651 63.328 112.323 63.616C112.995 63.904 113.827 64.048 114.819 64.048C115.043 64.048 115.299 64.032 115.587 64C115.875 63.968 116.179 63.936 116.499 63.904V70C116.019 70.064 115.475 70.128 114.867 70.192C114.259 70.256 113.683 70.288 113.139 70.288ZM122.494 60.016V53.776H144.094V60.016H122.494ZM151.668 70V34.24H165.396C167.86 34.24 170.036 34.672 171.924 35.536C173.844 36.4 175.348 37.68 176.436 39.376C177.524 41.072 178.068 43.168 178.068 45.664C178.068 48.096 177.508 50.16 176.388 51.856C175.3 53.552 173.796 54.848 171.876 55.744C169.988 56.608 167.828 57.04 165.396 57.04H159.108V70H151.668ZM159.108 50.56H165.444C166.5 50.56 167.412 50.352 168.18 49.936C168.948 49.52 169.54 48.944 169.956 48.208C170.404 47.472 170.628 46.624 170.628 45.664C170.628 44.672 170.404 43.808 169.956 43.072C169.54 42.336 168.948 41.76 168.18 41.344C167.412 40.928 166.5 40.72 165.444 40.72H159.108V50.56ZM188.971 70.576C187.083 70.576 185.451 70.272 184.075 69.664C182.699 69.056 181.643 68.192 180.907 67.072C180.171 65.92 179.803 64.56 179.803 62.992C179.803 61.52 180.139 60.224 180.811 59.104C181.483 57.952 182.507 56.992 183.883 56.224C185.291 55.456 187.035 54.912 189.115 54.592L197.131 53.296V58.576L190.411 59.776C189.387 59.968 188.603 60.304 188.059 60.784C187.515 61.232 187.243 61.888 187.243 62.752C187.243 63.552 187.547 64.176 188.155 64.624C188.763 65.072 189.515 65.296 190.411 65.296C191.595 65.296 192.635 65.04 193.531 64.528C194.427 64.016 195.115 63.328 195.595 62.464C196.107 61.568 196.363 60.592 196.363 59.536V52.72C196.363 51.728 195.963 50.896 195.163 50.224C194.395 49.552 193.339 49.216 191.995 49.216C190.715 49.216 189.579 49.568 188.587 50.272C187.627 50.976 186.923 51.904 186.475 53.056L180.715 50.32C181.227 48.848 182.043 47.584 183.163 46.528C184.283 45.472 185.627 44.656 187.195 44.08C188.763 43.504 190.475 43.216 192.331 43.216C194.539 43.216 196.491 43.616 198.187 44.416C199.883 45.216 201.195 46.336 202.123 47.776C203.083 49.184 203.563 50.832 203.563 52.72V70H196.843V65.776L198.475 65.488C197.707 66.64 196.859 67.6 195.931 68.368C195.003 69.104 193.963 69.648 192.811 70C191.659 70.384 190.379 70.576 188.971 70.576ZM212.923 80.56C212.155 80.56 211.403 80.496 210.667 80.368C209.963 80.24 209.339 80.032 208.795 79.744V73.84C209.243 73.968 209.771 74.08 210.379 74.176C210.987 74.272 211.547 74.32 212.059 74.32C213.467 74.32 214.475 73.984 215.083 73.312C215.691 72.672 216.187 71.936 216.571 71.104L218.347 67.024L218.251 73.024L206.731 43.792H214.459L222.091 64.576H219.211L226.843 43.792H234.571L223.339 72.448C222.635 74.24 221.771 75.744 220.747 76.96C219.723 78.176 218.555 79.072 217.243 79.648C215.963 80.256 214.523 80.56 212.923 80.56ZM237.718 70V43.792H244.438V50.176L243.718 49.12C244.102 47.104 245.03 45.616 246.502 44.656C247.974 43.696 249.734 43.216 251.782 43.216C253.958 43.216 255.862 43.776 257.494 44.896C259.158 45.984 260.198 47.456 260.614 49.312L258.55 49.504C259.414 47.36 260.646 45.776 262.246 44.752C263.846 43.728 265.718 43.216 267.862 43.216C269.75 43.216 271.414 43.632 272.854 44.464C274.326 45.296 275.478 46.464 276.31 47.968C277.142 49.44 277.558 51.168 277.558 53.152V70H270.358V54.688C270.358 53.664 270.166 52.784 269.782 52.048C269.43 51.312 268.918 50.736 268.246 50.32C267.574 49.904 266.758 49.696 265.798 49.696C264.87 49.696 264.054 49.904 263.35 50.32C262.678 50.736 262.15 51.312 261.766 52.048C261.414 52.784 261.238 53.664 261.238 54.688V70H254.038V54.688C254.038 53.664 253.846 52.784 253.462 52.048C253.11 51.312 252.598 50.736 251.926 50.32C251.254 49.904 250.438 49.696 249.478 49.696C248.55 49.696 247.734 49.904 247.03 50.32C246.358 50.736 245.83 51.312 245.446 52.048C245.094 52.784 244.918 53.664 244.918 54.688V70H237.718ZM294.92 70.576C292.136 70.576 289.72 69.968 287.672 68.752C285.624 67.504 284.04 65.84 282.92 63.76C281.8 61.68 281.24 59.376 281.24 56.848C281.24 54.224 281.816 51.888 282.968 49.84C284.152 47.792 285.736 46.176 287.72 44.992C289.704 43.808 291.944 43.216 294.44 43.216C296.52 43.216 298.36 43.552 299.96 44.224C301.56 44.864 302.904 45.776 303.992 46.96C305.112 48.144 305.96 49.52 306.536 51.088C307.112 52.624 307.4 54.304 307.4 56.128C307.4 56.64 307.368 57.152 307.304 57.664C307.272 58.144 307.192 58.56 307.064 58.912H287.432V53.632H302.984L299.576 56.128C299.896 54.752 299.88 53.536 299.528 52.48C299.176 51.392 298.552 50.544 297.656 49.936C296.792 49.296 295.72 48.976 294.44 48.976C293.192 48.976 292.12 49.28 291.224 49.888C290.328 50.496 289.656 51.392 289.208 52.576C288.76 53.76 288.584 55.2 288.68 56.896C288.552 58.368 288.728 59.664 289.208 60.784C289.688 61.904 290.424 62.784 291.416 63.424C292.408 64.032 293.608 64.336 295.016 64.336C296.296 64.336 297.384 64.08 298.28 63.568C299.208 63.056 299.928 62.352 300.44 61.456L306.2 64.192C305.688 65.472 304.872 66.592 303.752 67.552C302.664 68.512 301.368 69.264 299.864 69.808C298.36 70.32 296.712 70.576 294.92 70.576ZM311.64 70V43.792H318.36V48.976L317.976 47.824C318.584 46.256 319.56 45.104 320.904 44.368C322.28 43.6 323.88 43.216 325.704 43.216C327.688 43.216 329.416 43.632 330.888 44.464C332.392 45.296 333.56 46.464 334.392 47.968C335.224 49.44 335.64 51.168 335.64 53.152V70H328.44V54.688C328.44 53.664 328.232 52.784 327.816 52.048C327.432 51.312 326.872 50.736 326.136 50.32C325.432 49.904 324.6 49.696 323.64 49.696C322.712 49.696 321.88 49.904 321.144 50.32C320.408 50.736 319.832 51.312 319.416 52.048C319.032 52.784 318.84 53.664 318.84 54.688V70H311.64ZM352.998 70.288C349.83 70.288 347.366 69.44 345.606 67.744C343.878 66.016 343.014 63.616 343.014 60.544V50.032H338.598V43.792H338.838C340.182 43.792 341.206 43.456 341.91 42.784C342.646 42.112 343.014 41.104 343.014 39.76V37.84H350.214V43.792H356.358V50.032H350.214V60.064C350.214 60.96 350.374 61.712 350.694 62.32C351.014 62.896 351.51 63.328 352.182 63.616C352.854 63.904 353.686 64.048 354.678 64.048C354.902 64.048 355.158 64.032 355.446 64C355.734 63.968 356.038 63.936 356.358 63.904V70C355.878 70.064 355.334 70.128 354.726 70.192C354.118 70.256 353.542 70.288 352.998 70.288ZM370.85 70.576C367.97 70.576 365.458 69.904 363.314 68.56C361.202 67.184 359.762 65.344 358.994 63.04L364.273 60.544C364.946 61.952 365.858 63.056 367.01 63.856C368.162 64.656 369.442 65.056 370.85 65.056C371.874 65.056 372.658 64.848 373.202 64.432C373.746 64.016 374.018 63.44 374.018 62.704C374.018 62.32 373.922 62 373.73 61.744C373.538 61.456 373.25 61.2 372.866 60.976C372.482 60.752 372.002 60.56 371.426 60.4L366.962 59.152C364.818 58.544 363.17 57.568 362.018 56.224C360.866 54.848 360.29 53.232 360.29 51.376C360.29 49.744 360.706 48.32 361.538 47.104C362.37 45.888 363.538 44.944 365.042 44.272C366.546 43.568 368.274 43.216 370.226 43.216C372.786 43.216 375.026 43.824 376.946 45.04C378.898 46.224 380.274 47.904 381.074 50.08L375.746 52.576C375.362 51.488 374.658 50.624 373.634 49.984C372.642 49.312 371.506 48.976 370.226 48.976C369.298 48.976 368.562 49.168 368.018 49.552C367.506 49.936 367.25 50.464 367.25 51.136C367.25 51.488 367.346 51.808 367.538 52.096C367.73 52.384 368.034 52.64 368.45 52.864C368.898 53.088 369.442 53.296 370.082 53.488L374.258 54.736C376.434 55.376 378.098 56.352 379.25 57.664C380.402 58.944 380.978 60.528 380.978 62.416C380.978 64.048 380.546 65.472 379.682 66.688C378.85 67.904 377.682 68.864 376.178 69.568C374.674 70.24 372.898 70.576 370.85 70.576Z" fill="#020202"/>
</svg>
