<svg width="154" height="31" viewBox="0 0 154 31" fill="none" xmlns="http://www.w3.org/2000/svg">
<path d="M24.1232 22.571L16.4868 16.5649V26.2805C16.4871 27.0116 16.6571 27.7327 16.9836 28.3868C17.31 29.041 17.784 29.6103 18.3681 30.05C18.9522 30.4898 19.6304 30.7878 20.3493 30.9206C21.0682 31.0535 21.8082 31.0175 22.5108 30.8156C26.2063 29.7509 27.1462 24.9497 24.1232 22.571Z" fill="#91BAFF"/>
<path d="M23.6411 10.6577L16.4868 16.5724L23.7285 22.2686C26.8234 24.7039 31.3636 22.4987 31.3636 18.5603V14.3043C31.3636 10.3067 26.718 8.11692 23.6411 10.6577Z" fill="#488CFF"/>
<path d="M24.221 0.597058C20.6914 -1.22365 16.4868 1.33769 16.4868 5.30955V16.5655L25.1673 9.39844C25.8437 8.8398 26.3709 8.12208 26.7017 7.30961C27.0325 6.49713 27.1566 5.61527 27.0628 4.74306C26.969 3.87084 26.6603 3.03552 26.1643 2.31195C25.6684 1.58837 25.0006 0.999135 24.221 0.597058Z" fill="#1550F7"/>
<path d="M7.24047 22.571C4.21753 24.9497 5.15617 29.7509 8.85287 30.8156C9.55552 31.0175 10.2955 31.0535 11.0144 30.9206C11.7333 30.7878 12.4116 30.4898 12.9956 30.05C13.5797 29.6103 14.0537 29.041 14.3801 28.3868C14.7066 27.7327 14.8767 27.0116 14.8769 26.2805V16.5649L7.24047 22.571Z" fill="#91BAFF"/>
<path d="M7.72258 10.6578C4.64563 8.11709 0 10.3068 0 14.298V18.5566C0 22.495 4.54019 24.7002 7.63643 22.2649L14.8768 16.5687L7.72258 10.6578Z" fill="#488CFF"/>
<path d="M7.14372 0.597028C6.36405 0.999105 5.69631 1.58834 5.20034 2.31192C4.70437 3.0355 4.39566 3.87081 4.30188 4.74303C4.20809 5.61524 4.33216 6.4971 4.66297 7.30958C4.99378 8.12205 5.52099 8.83977 6.19737 9.39841L14.8766 16.5655V5.3121C14.8766 1.33766 10.672 -1.22368 7.14372 0.597028Z" fill="#1550F7"/>
<path d="M40.3638 7.38354H45.5983C49.1806 7.38354 51.0398 8.94452 51.0398 11.9983C51.0398 15.0971 49.1343 16.7558 45.5983 16.7558H43.2106V23.3906H40.3638V7.38354ZM45.3 14.1109C47.3213 14.1109 48.1699 13.4899 48.1699 12.0433C48.1699 10.5968 47.3444 10.0233 45.3 10.0233H43.2106V14.1109H45.3Z" fill="#122960"/>
<path d="M60.6115 12.481L59.2794 14.915C58.8695 14.6509 58.3896 14.5165 57.9023 14.5293C56.2307 14.5293 55.3988 15.5579 55.3988 17.6975V23.3911H52.6484V12.0759H55.4258V14.0047C55.6391 13.3715 56.047 12.8219 56.5913 12.4344C57.1355 12.047 57.7883 11.8414 58.4564 11.8471C59.2217 11.8406 59.9716 12.0612 60.6115 12.481Z" fill="#122960"/>
<path d="M71.0845 16.2462V23.3863H68.5591L68.3264 21.9166C67.6604 22.9735 66.3745 23.6164 64.8817 23.6164C62.494 23.6164 60.7954 22.0735 60.7954 19.9197C60.7954 18.5876 61.392 17.5783 62.494 17.073C63.2513 16.7284 64.2157 16.5676 65.5015 16.5676H68.3303V16.2462C68.3303 15.0067 67.5035 14.2493 66.1945 14.2493C65.0463 14.2493 63.9675 14.8459 63.1407 15.9479L61.1439 14.2763C62.4978 12.6459 64.1745 11.8423 66.2408 11.8423C69.2265 11.8384 71.0845 13.5138 71.0845 16.2462ZM68.3264 18.6339H65.8731C64.9319 18.6339 64.3802 18.7484 64.0138 19.0197C63.8636 19.1247 63.7425 19.2662 63.662 19.4308C63.5815 19.5955 63.5442 19.7778 63.5535 19.9609C63.5535 20.7645 64.2195 21.2698 65.3215 21.2698C66.975 21.275 68.3264 20.1036 68.3264 18.6339Z" fill="#122960"/>
<path d="M72.7158 17.7611C72.7158 14.7755 74.4825 11.8374 78.1792 11.8374C80.4294 11.8374 82.1974 12.9162 83.0653 15.1664L80.4474 16.195C80.1491 15.0018 79.2992 14.2444 78.1741 14.2444C76.2685 14.2444 75.5343 15.9661 75.5343 17.7573C75.5343 19.5484 76.2454 21.2007 78.1741 21.2007C79.276 21.2007 80.1491 20.4665 80.4474 19.2951L82.9496 20.2595C82.1922 22.372 80.4474 23.6116 78.1921 23.6116C74.5057 23.6154 72.7158 20.7455 72.7158 17.7611Z" fill="#122960"/>
<path d="M88.0304 14.2492V20.0122C88.0304 20.9122 88.5807 21.3198 89.4769 21.3198C89.9462 21.3025 90.4102 21.2159 90.8541 21.0627V23.2665C90.1885 23.4926 89.4906 23.609 88.7878 23.6111C86.8822 23.6111 85.2749 22.6236 85.2749 20.2127V14.244H83.4375V12.0581H85.2749V9.87226L88.0304 7.8291V12.053H90.8592V14.2389L88.0304 14.2492Z" fill="#122960"/>
<path d="M102.334 16.2462V23.3863H99.8085L99.5784 21.9166C98.9123 22.9735 97.6265 23.6164 96.135 23.6164C93.7472 23.6164 92.0474 22.0735 92.0474 19.9197C92.0474 18.5876 92.6453 17.5783 93.7472 17.073C94.5046 16.7284 95.4689 16.5676 96.7547 16.5676H99.5835V16.2462C99.5835 15.0067 98.7567 14.2493 97.4491 14.2493C96.3008 14.2493 95.222 14.8459 94.3953 15.9479L92.3971 14.2763C93.7524 12.6459 95.4278 11.8423 97.4941 11.8423C100.472 11.8384 102.334 13.5138 102.334 16.2462ZM99.5784 18.6339H97.1289C96.1864 18.6339 95.6361 18.7484 95.2683 19.0197C95.1184 19.1249 94.9977 19.2665 94.9174 19.4311C94.8372 19.5957 94.7999 19.778 94.8093 19.9609C94.8093 20.7645 95.4753 21.2698 96.5773 21.2698C98.2244 21.275 99.5784 20.1036 99.5784 18.6339Z" fill="#122960"/>
<path d="M121.872 7.38354V23.3854H119.002V11.4274L115.031 21.9891H112.252L108.28 11.4274V23.3854H105.41V7.38354H109.525L113.639 18.6562L117.773 7.38354H121.872Z" fill="#122960"/>
<path d="M125.201 7.38354H128.094V10.2123H125.201V7.38354ZM125.271 12.0665H128.026V23.3816H125.271V12.0665Z" fill="#122960"/>
<path d="M141.181 16.085V23.3858H138.426V16.7742C138.426 15.9937 138.426 14.2489 136.336 14.2489C133.765 14.2489 133.765 16.8423 133.765 18.8636V23.3858H131.009V12.0707H133.765V13.3796C134.568 12.3008 135.808 11.8367 137.185 11.8367C139.735 11.838 141.181 13.3989 141.181 16.085Z" fill="#122960"/>
<path d="M153.833 7.38354V23.3854H151.077V22.2604C150.297 23.2247 149.034 23.6156 147.817 23.6156C144.741 23.6156 143.042 21.1121 143.042 17.715C143.042 14.0183 145.039 11.8376 147.817 11.8376C149.103 11.8376 150.366 12.3648 151.077 13.2147V7.38354H153.833ZM151.33 17.7382C151.33 15.8558 150.48 14.3398 148.502 14.3398C146.665 14.3398 145.794 15.6256 145.794 17.7382C145.794 19.8276 146.642 21.0671 148.48 21.0671C150.48 21.0671 151.33 19.6206 151.33 17.7382Z" fill="#122960"/>
</svg>
