<svg width="228" height="48" viewBox="0 0 228 48" fill="none" xmlns="http://www.w3.org/2000/svg">
<path d="M33.6 20.2838H26.432V12.9032H19.5627C19.5627 16.9806 16.3769 20.2838 12.4445 20.2838V27.4064H19.5627V34.7871H26.432C26.432 30.7097 29.6676 27.4064 33.6 27.4064V20.2838Z" fill="#1550F7"/>
<path d="M60.3395 20.4531C60.2732 19.8329 59.9938 19.3499 59.5014 19.0043C59.0137 18.6586 58.3793 18.4858 57.598 18.4858C57.0488 18.4858 56.5777 18.5687 56.1847 18.7344C55.7917 18.9001 55.491 19.125 55.2827 19.4091C55.0743 19.6932 54.9678 20.0175 54.9631 20.3821C54.9631 20.6851 55.0317 20.9479 55.169 21.1705C55.3111 21.393 55.5028 21.5824 55.7443 21.7386C55.9858 21.8902 56.2533 22.018 56.5469 22.1222C56.8404 22.2263 57.1364 22.3139 57.4347 22.3849L58.7983 22.7259C59.3475 22.8537 59.8755 23.0265 60.3821 23.2443C60.8935 23.4621 61.3504 23.7367 61.7528 24.0682C62.16 24.3996 62.482 24.7997 62.7188 25.2685C62.9555 25.7372 63.0739 26.2865 63.0739 26.9162C63.0739 27.7685 62.8561 28.5189 62.4205 29.1676C61.9848 29.8116 61.3551 30.3158 60.5312 30.6804C59.7121 31.0402 58.7202 31.2202 57.5554 31.2202C56.4238 31.2202 55.4413 31.045 54.608 30.6946C53.7794 30.3442 53.1307 29.8329 52.6619 29.1605C52.1979 28.4882 51.947 27.669 51.9091 26.7031H54.5014C54.5393 27.2098 54.6955 27.6312 54.9702 27.9673C55.2448 28.3035 55.6023 28.5545 56.0426 28.7202C56.4877 28.8859 56.9848 28.9688 57.5341 28.9688C58.107 28.9688 58.6089 28.8835 59.0398 28.7131C59.4754 28.5379 59.8163 28.2964 60.0625 27.9886C60.3087 27.6761 60.4342 27.3116 60.4389 26.8949C60.4342 26.5161 60.3229 26.2036 60.1051 25.9574C59.8873 25.7064 59.5819 25.4981 59.1889 25.3324C58.8007 25.1619 58.3461 25.0104 57.8253 24.8778L56.1705 24.4517C54.9725 24.1439 54.0256 23.6776 53.3295 23.0526C52.6383 22.4228 52.2926 21.5871 52.2926 20.5455C52.2926 19.6884 52.5246 18.938 52.9886 18.294C53.4574 17.6501 54.0942 17.1506 54.8991 16.7955C55.7041 16.4356 56.6155 16.2557 57.6335 16.2557C58.6657 16.2557 59.5701 16.4356 60.3466 16.7955C61.1278 17.1506 61.741 17.6454 62.1861 18.2798C62.6312 18.9096 62.8608 19.634 62.875 20.4531H60.3395ZM70.0678 31.2131C69.0025 31.2131 68.0792 30.9787 67.2979 30.5099C66.5167 30.0412 65.9106 29.3854 65.4798 28.5426C65.0536 27.6998 64.8406 26.715 64.8406 25.5881C64.8406 24.4612 65.0536 23.474 65.4798 22.6264C65.9106 21.7789 66.5167 21.1207 67.2979 20.652C68.0792 20.1832 69.0025 19.9489 70.0678 19.9489C71.1332 19.9489 72.0565 20.1832 72.8377 20.652C73.619 21.1207 74.2227 21.7789 74.6488 22.6264C75.0797 23.474 75.2951 24.4612 75.2951 25.5881C75.2951 26.715 75.0797 27.6998 74.6488 28.5426C74.2227 29.3854 73.619 30.0412 72.8377 30.5099C72.0565 30.9787 71.1332 31.2131 70.0678 31.2131ZM70.082 29.1534C70.6597 29.1534 71.1426 28.9948 71.5309 28.6776C71.9192 28.3556 72.208 27.9247 72.3974 27.3849C72.5915 26.8452 72.6886 26.2438 72.6886 25.581C72.6886 24.9134 72.5915 24.3097 72.3974 23.7699C72.208 23.2254 71.9192 22.7921 71.5309 22.4702C71.1426 22.1482 70.6597 21.9872 70.082 21.9872C69.4902 21.9872 68.9978 22.1482 68.6048 22.4702C68.2165 22.7921 67.9253 23.2254 67.7312 23.7699C67.5418 24.3097 67.4471 24.9134 67.4471 25.581C67.4471 26.2438 67.5418 26.8452 67.7312 27.3849C67.9253 27.9247 68.2165 28.3556 68.6048 28.6776C68.9978 28.9948 69.4902 29.1534 70.082 29.1534ZM83.0028 20.0909V22.0795H76.554V20.0909H83.0028ZM78.1662 31V19.0611C78.1662 18.3272 78.3177 17.7164 78.6207 17.2287C78.9285 16.741 79.3404 16.3764 79.8565 16.1349C80.3726 15.8935 80.9455 15.7727 81.5753 15.7727C82.0204 15.7727 82.4157 15.8082 82.7614 15.8793C83.107 15.9503 83.3627 16.0142 83.5284 16.071L83.017 18.0597C82.9081 18.0265 82.7708 17.9934 82.6051 17.9602C82.4394 17.9223 82.2547 17.9034 82.0511 17.9034C81.5729 17.9034 81.2344 18.0194 81.0355 18.2514C80.8414 18.4787 80.7443 18.8054 80.7443 19.2315V31H78.1662ZM90.4638 20.0909V22.0795H84.1925V20.0909H90.4638ZM85.7408 17.4773H88.3118V27.7188C88.3118 28.0644 88.3639 28.3295 88.468 28.5142C88.5769 28.6941 88.719 28.8172 88.8942 28.8835C89.0694 28.9498 89.2635 28.983 89.4766 28.983C89.6375 28.983 89.7843 28.9711 89.9169 28.9474C90.0542 28.9238 90.1584 28.9025 90.2294 28.8835L90.6626 30.8935C90.5253 30.9408 90.3288 30.9929 90.0732 31.0497C89.8222 31.1065 89.5144 31.1397 89.1499 31.1491C88.5059 31.1681 87.9259 31.071 87.4098 30.858C86.8937 30.6402 86.4841 30.304 86.1811 29.8494C85.8828 29.3949 85.736 28.8267 85.7408 28.1449V17.4773ZM98.8746 23.8835V26H92.3263V23.8835H98.8746ZM106.653 31V16.4545H112.108C113.225 16.4545 114.163 16.6629 114.92 17.0795C115.683 17.4962 116.258 18.0691 116.646 18.7983C117.039 19.5227 117.236 20.3466 117.236 21.2699C117.236 22.2027 117.039 23.0312 116.646 23.7557C116.253 24.4801 115.673 25.0507 114.906 25.4673C114.139 25.8793 113.195 26.0852 112.072 26.0852H108.457V23.919H111.717C112.371 23.919 112.906 23.8054 113.322 23.5781C113.739 23.3509 114.047 23.0384 114.246 22.6406C114.449 22.2429 114.551 21.786 114.551 21.2699C114.551 20.7538 114.449 20.2992 114.246 19.9062C114.047 19.5133 113.737 19.2079 113.315 18.9901C112.899 18.7675 112.361 18.6562 111.703 18.6562H109.288V31H106.653ZM122.355 31.2202C121.663 31.2202 121.041 31.0971 120.487 30.8509C119.938 30.5999 119.502 30.2306 119.18 29.7429C118.863 29.2552 118.704 28.6539 118.704 27.9389C118.704 27.3234 118.818 26.8144 119.045 26.4119C119.272 26.0095 119.583 25.6875 119.975 25.446C120.368 25.2045 120.811 25.0223 121.304 24.8991C121.801 24.7713 122.315 24.679 122.845 24.6222C123.484 24.5559 124.002 24.4967 124.4 24.4446C124.798 24.3878 125.087 24.3026 125.267 24.1889C125.451 24.0705 125.544 23.8883 125.544 23.642V23.5994C125.544 23.0644 125.385 22.6501 125.068 22.3565C124.751 22.063 124.294 21.9162 123.697 21.9162C123.067 21.9162 122.568 22.0535 122.199 22.3281C121.834 22.6027 121.588 22.9271 121.46 23.3011L119.059 22.9602C119.249 22.2973 119.561 21.7434 119.997 21.2983C120.432 20.8485 120.965 20.5123 121.595 20.2898C122.225 20.0625 122.921 19.9489 123.683 19.9489C124.208 19.9489 124.732 20.0104 125.252 20.1335C125.773 20.2566 126.249 20.4602 126.68 20.7443C127.111 21.0237 127.457 21.4048 127.717 21.8878C127.982 22.3707 128.115 22.9744 128.115 23.6989V31H125.643V29.5014H125.558C125.402 29.8045 125.181 30.0885 124.897 30.3537C124.618 30.6141 124.265 30.8248 123.839 30.9858C123.418 31.142 122.923 31.2202 122.355 31.2202ZM123.022 29.331C123.538 29.331 123.986 29.2292 124.365 29.0256C124.743 28.8172 125.035 28.5426 125.238 28.2017C125.447 27.8608 125.551 27.4891 125.551 27.0866V25.8011C125.47 25.8674 125.333 25.929 125.139 25.9858C124.949 26.0426 124.736 26.0923 124.5 26.1349C124.263 26.1776 124.029 26.2154 123.797 26.2486C123.565 26.2817 123.363 26.3101 123.193 26.3338C122.809 26.3859 122.466 26.4711 122.163 26.5895C121.86 26.7079 121.621 26.8736 121.446 27.0866C121.27 27.295 121.183 27.5649 121.183 27.8963C121.183 28.3698 121.356 28.7273 121.701 28.9688C122.047 29.2102 122.487 29.331 123.022 29.331ZM131.907 35.0909C131.557 35.0909 131.233 35.0625 130.934 35.0057C130.641 34.9536 130.406 34.892 130.231 34.821L130.828 32.8182C131.202 32.9271 131.536 32.9792 131.829 32.9744C132.123 32.9697 132.381 32.8774 132.603 32.6974C132.831 32.5223 133.022 32.2287 133.179 31.8168L133.399 31.2273L129.443 20.0909H132.17L134.684 28.3295H134.798L137.319 20.0909H140.054L135.686 32.321C135.482 32.8987 135.212 33.3935 134.876 33.8054C134.54 34.2221 134.128 34.5393 133.64 34.7571C133.157 34.9796 132.58 35.0909 131.907 35.0909ZM141.833 31V20.0909H144.29V21.9446H144.418C144.645 21.3196 145.022 20.8319 145.547 20.4815C146.073 20.1264 146.7 19.9489 147.429 19.9489C148.168 19.9489 148.791 20.1288 149.297 20.4886C149.809 20.8437 150.168 21.3291 150.377 21.9446H150.49C150.732 21.3385 151.139 20.8556 151.712 20.4957C152.29 20.1312 152.974 19.9489 153.765 19.9489C154.768 19.9489 155.587 20.2661 156.222 20.9006C156.856 21.535 157.174 22.4607 157.174 23.6776V31H154.596V24.0753C154.596 23.3982 154.416 22.9034 154.056 22.5909C153.696 22.2737 153.256 22.1151 152.735 22.1151C152.114 22.1151 151.629 22.3092 151.279 22.6974C150.933 23.081 150.76 23.5805 150.76 24.196V31H148.239V23.9688C148.239 23.4053 148.069 22.9555 147.728 22.6193C147.391 22.2831 146.951 22.1151 146.407 22.1151C146.037 22.1151 145.701 22.2098 145.398 22.3991C145.095 22.5838 144.854 22.8466 144.674 23.1875C144.494 23.5237 144.404 23.9167 144.404 24.3665V31H141.833ZM164.612 31.2131C163.518 31.2131 162.573 30.9858 161.778 30.5312C160.987 30.072 160.379 29.4233 159.952 28.5852C159.526 27.7424 159.313 26.7505 159.313 25.6094C159.313 24.4872 159.526 23.5024 159.952 22.6548C160.383 21.8026 160.985 21.1397 161.756 20.6662C162.528 20.188 163.435 19.9489 164.477 19.9489C165.149 19.9489 165.783 20.0578 166.38 20.2756C166.981 20.4886 167.512 20.8201 167.971 21.2699C168.435 21.7197 168.799 22.2926 169.065 22.9886C169.33 23.6799 169.462 24.5038 169.462 25.4602V26.2486H160.521V24.5156H166.998C166.993 24.0232 166.887 23.5852 166.678 23.2017C166.47 22.8134 166.179 22.508 165.805 22.2855C165.435 22.063 165.004 21.9517 164.512 21.9517C163.987 21.9517 163.525 22.0795 163.127 22.3352C162.729 22.5862 162.419 22.9176 162.197 23.3295C161.979 23.7367 161.868 24.1842 161.863 24.6719V26.1847C161.863 26.8191 161.979 27.3636 162.211 27.8182C162.443 28.268 162.767 28.6136 163.184 28.8551C163.601 29.0919 164.088 29.2102 164.647 29.2102C165.021 29.2102 165.36 29.1581 165.663 29.054C165.966 28.9451 166.228 28.7865 166.451 28.5781C166.674 28.3698 166.842 28.1117 166.955 27.804L169.356 28.0739C169.204 28.7083 168.915 29.2623 168.489 29.7358C168.068 30.2045 167.528 30.5691 166.87 30.8295C166.212 31.0852 165.459 31.2131 164.612 31.2131ZM174.208 24.608V31H171.637V20.0909H174.095V21.9446H174.223C174.474 21.3338 174.874 20.8485 175.423 20.4886C175.977 20.1288 176.661 19.9489 177.475 19.9489C178.228 19.9489 178.884 20.1098 179.443 20.4318C180.006 20.7538 180.442 21.2202 180.75 21.831C181.062 22.4418 181.216 23.1828 181.211 24.054V31H178.64V24.4517C178.64 23.7225 178.451 23.152 178.072 22.7401C177.698 22.3281 177.18 22.1222 176.517 22.1222C176.067 22.1222 175.667 22.2216 175.316 22.4205C174.971 22.6146 174.699 22.8963 174.5 23.2656C174.306 23.6349 174.208 24.0824 174.208 24.608ZM189.272 20.0909V22.0795H183.001V20.0909H189.272ZM184.549 17.4773H187.12V27.7188C187.12 28.0644 187.172 28.3295 187.277 28.5142C187.386 28.6941 187.528 28.8172 187.703 28.8835C187.878 28.9498 188.072 28.983 188.285 28.983C188.446 28.983 188.593 28.9711 188.725 28.9474C188.863 28.9238 188.967 28.9025 189.038 28.8835L189.471 30.8935C189.334 30.9408 189.137 30.9929 188.882 31.0497C188.631 31.1065 188.323 31.1397 187.958 31.1491C187.315 31.1681 186.734 31.071 186.218 30.858C185.702 30.6402 185.293 30.304 184.99 29.8494C184.691 29.3949 184.545 28.8267 184.549 28.1449V17.4773ZM199.888 22.9744L197.545 23.2301C197.478 22.9934 197.362 22.7708 197.197 22.5625C197.036 22.3542 196.818 22.1861 196.543 22.0582C196.269 21.9304 195.933 21.8665 195.535 21.8665C195 21.8665 194.55 21.9825 194.185 22.2145C193.826 22.4465 193.648 22.7472 193.653 23.1165C193.648 23.4337 193.764 23.6918 194.001 23.8906C194.242 24.0895 194.64 24.2528 195.194 24.3807L197.055 24.7784C198.087 25.0009 198.854 25.3537 199.356 25.8366C199.862 26.3196 200.118 26.9517 200.123 27.733C200.118 28.4195 199.917 29.0256 199.519 29.5511C199.126 30.072 198.579 30.4792 197.879 30.7727C197.178 31.0663 196.373 31.2131 195.464 31.2131C194.129 31.2131 193.054 30.9337 192.239 30.375C191.425 29.8116 190.94 29.0279 190.783 28.0241L193.29 27.7827C193.404 28.2751 193.646 28.6468 194.015 28.8977C194.384 29.1487 194.865 29.2741 195.457 29.2741C196.067 29.2741 196.558 29.1487 196.927 28.8977C197.301 28.6468 197.488 28.3366 197.488 27.9673C197.488 27.6548 197.367 27.3968 197.126 27.1932C196.889 26.9896 196.52 26.8333 196.018 26.7244L194.157 26.3338C193.111 26.116 192.336 25.7491 191.835 25.233C191.333 24.7121 191.084 24.054 191.089 23.2585C191.084 22.5862 191.266 22.0038 191.636 21.5114C192.01 21.0142 192.528 20.6307 193.191 20.3608C193.859 20.0862 194.628 19.9489 195.499 19.9489C196.778 19.9489 197.784 20.2211 198.518 20.7656C199.256 21.3101 199.713 22.0464 199.888 22.9744Z" fill="#010101"/>
</svg>
